<svg xmlns="http://www.w3.org/2000/svg" _ngcontent-lfo-c1="" class="draw withPanel" draw="" filter="url(#filter)" ng-reflect-klass="draw" ng-reflect-ng-class="[object Object]" width="500" height="500"><rect _ngcontent-lfo-c1="" height="100%" width="100%" fill="#ffffffff"/><defs _ngcontent-lfo-c1=""><pattern _ngcontent-lfo-c1="" height="25" id="line" patternUnits="userSpaceOnUse" width="25"><image _ngcontent-lfo-c1="" xmlns:xlink="http://www.w3.org/1999/xlink" xlink:href="data:image/svg+xml,%3Csvg xmlns='http://www.w3.org/2000/svg' width='100' height='100' viewBox='0 0 100 100'%3E%3Cg stroke='%23000000' stroke-width='0' %3E%3Crect fill='%23000000' x='-60' y='-60' width='110' height='240'/%3E%3C/g%3E%3C/svg%3E" height="25" width="25" x="0" y="0"/></pattern><pattern _ngcontent-lfo-c1="" height="25" id="zigzag-v" patternUnits="userSpaceOnUse" width="25"><image _ngcontent-lfo-c1="" xmlns:xlink="http://www.w3.org/1999/xlink" xlink:href="data:image/svg+xml,%3Csvg xmlns='http://www.w3.org/2000/svg' width='120' height='120' viewBox='0 0 120&#10;                120'%3E%3Cpolygon fill='%23000000' points='120 120 60 120 90 90 120 60 120 0 120 0 60 60 0 0 0 60 30 90 60 120 120 120 '/%3E%3C/svg%3E" height="25" width="25" x="0" y="0"/></pattern><pattern _ngcontent-lfo-c1="" height="25" id="zigzag-h" patternUnits="userSpaceOnUse" width="25"><image _ngcontent-lfo-c1="" xmlns:xlink="http://www.w3.org/1999/xlink" xlink:href="data:image/svg+xml,%3Csvg xmlns='http://www.w3.org/2000/svg' width='120' height='120' viewBox='0 0 120 120'%3E%3Cpolygon fill='%23000000' points='120 0 120 60 90 30 60 0 0 0 0 0 60 60 0 120 60 120 90 90 120 60 120 0'/%3E%3C/svg%3E" height="25" width="25" x="0" y="0"/></pattern><pattern _ngcontent-lfo-c1="" height="25" id="square" patternUnits="userSpaceOnUse" width="25"><image _ngcontent-lfo-c1="" xmlns:xlink="http://www.w3.org/1999/xlink" xlink:href="data:image/svg+xml,%3Csvg xmlns='http://www.w3.org/2000/svg' width='44' height='44' viewBox='0 0 100 100'%3E%3Crect x='0' y='0' width='76' height='76' fill='%23000000'/%3E%3C/svg%3E" height="25" width="25" x="0" y="0"/></pattern><pattern _ngcontent-lfo-c1="" height="25" id="circle" patternUnits="userSpaceOnUse" width="25"><image _ngcontent-lfo-c1="" xmlns:xlink="http://www.w3.org/1999/xlink" xlink:href="data:image/svg+xml,%3Csvg xmlns='http://www.w3.org/2000/svg' width='100%25' height='100%25' %3E%3Cdefs%3E%3ClinearGradient id='a' x1='0' x2='0' y1='0' y2='1'%3E%3Cstop offset='0' stop-color='%23ffffff'/%3E%3Cstop offset='1' stop-color='%23ffffff'/%3E%3C/linearGradient%3E%3C/defs%3E%3Cpattern id='b' width='12' height='12' patternUnits='userSpaceOnUse'%3E%3Ccircle fill='%23000000' cx='6' cy='6' r='6'/%3E%3C/pattern%3E%3Crect width='100%25' height='100%25' fill='url(%23a)'/%3E%3Crect width='100%25' height='100%25' fill='url(%23b)' /%3E%3C/svg%3E" height="25" width="25" x="0" y="0"/></pattern></defs><!--bindings={
  "ng-reflect-ng-for-of": "[object SVGPathElement],[objec"
}--><!----><!--bindings={
  "ng-reflect-svg": "[object SVGPathElement]",
  "ng-reflect-draw-svg": "[object SVGSVGElement]"
}--><!----><!--bindings={
  "ng-reflect-svg": "[object SVGCircleElement]",
  "ng-reflect-draw-svg": "[object SVGSVGElement]"
}--><!----><!--bindings={
  "ng-reflect-svg": "[object SVGPathElement]",
  "ng-reflect-draw-svg": "[object SVGSVGElement]"
}--><!----><!--bindings={
  "ng-reflect-svg": "[object SVGPathElement]",
  "ng-reflect-draw-svg": "[object SVGSVGElement]"
}--><!----><!--bindings={
  "ng-reflect-svg": "[object SVGCircleElement]",
  "ng-reflect-draw-svg": "[object SVGSVGElement]"
}--><!----><!--bindings={
  "ng-reflect-svg": "[object SVGCircleElement]",
  "ng-reflect-draw-svg": "[object SVGSVGElement]"
}--><!----><!--bindings={
  "ng-reflect-svg": "[object SVGCircleElement]",
  "ng-reflect-draw-svg": "[object SVGSVGElement]"
}--><!----><!--bindings={
  "ng-reflect-svg": "[object SVGPathElement]",
  "ng-reflect-draw-svg": "[object SVGSVGElement]"
}--><!----><!--bindings={
  "ng-reflect-svg": "[object SVGCircleElement]",
  "ng-reflect-draw-svg": "[object SVGSVGElement]"
}--><!----><!--bindings={
  "ng-reflect-svg": "[object SVGPathElement]",
  "ng-reflect-draw-svg": "[object SVGSVGElement]"
}--><!----><!--bindings={
  "ng-reflect-svg": "[object SVGPathElement]",
  "ng-reflect-draw-svg": "[object SVGSVGElement]"
}--><filter _ngcontent-lfo-c1="" id="filter" ng-reflect-ng-switch=""><!--bindings={
  "ng-reflect-ng-switch-case": "1"
}--><!--bindings={
  "ng-reflect-ng-switch-case": "2"
}--><!--bindings={
  "ng-reflect-ng-switch-case": "3"
}--><!--bindings={
  "ng-reflect-ng-switch-case": "4"
}--><!--bindings={
  "ng-reflect-ng-switch-case": "5"
}--></filter><!--bindings={
  "ng-reflect-ng-if": "false"
}--><path stroke="#000000ff" fill="none" stroke-width="25" stroke-linecap="round" stroke-linejoin="round" d="M 75 79 L 74 79 L 77 85 L 94 104 L 109 122 L 156 160 L 207 189 L 241 204 L 299 225 L 352 239 L 382 247 L 392 249 L 402 253 L 411 255 L 417 258 L 418 258 L 419 260 L 420 260 L 422 262 L 423 265 L 423 272 L 423 281 L 422 294 L 419 308 L 410 325 L 396 346 L 371 366 L 339 386 L 318 395 L 305 398 L 294 400 L 283 400 L 275 400 L 271 399 L 267 397 L 264 394 L 261 386 L 258 371 L 258 352 L 263 315 L 271 280 L 284 242 L 295 209 L 303 191 L 310 176 L 325 149 L 336 133 L 345 124 L 353 118 L 357 113 L 360 109 L 361 109 L 362 108 L 363 107 L 364 106 "/><circle cx="303" cy="279" r="12.5" fill="#000000ff"/><path stroke="#000000ff" fill="none" stroke-width="25" stroke-linecap="round" stroke-linejoin="round" d="M 319 353 L 319 354 L 318 356 L 318 359 L 316 361 L 315 364 L 313 366 L 310 371 L 309 373 L 307 375 L 306 377 L 305 379 L 304 381 L 302 382 L 302 383 L 301 384 L 301 385 L 300 385 L 299 386 L 299 387 L 298 387 L 298 388 L 297 388 L 296 388 L 295 389 L 294 389 L 293 389 L 291 389 L 290 387 L 289 386 L 288 384 L 287 382 L 286 381 L 284 380 L 284 378 L 283 377 L 282 375 L 282 374 L 281 372 L 281 370 L 281 369 L 281 368 L 281 367 L 281 366 L 281 365 L 280 364 L 280 362 L 280 360 L 279 359 L 279 357 L 279 355 L 279 353 L 279 352 L 279 350 L 279 348 L 279 346 L 279 344 L 279 341 L 279 337 L 279 334 L 279 333 L 279 331 L 279 328 L 279 326 L 279 325 L 279 323 L 279 322 L 279 321 L 279 320 L 279 318 L 280 317 L 280 315 L 280 313 L 281 310 L 282 308 L 283 305 L 283 302 L 285 299 L 286 296 L 287 292 L 287 289 L 289 287 L 291 283 L 292 278 L 295 271 L 298 264 L 302 257 L 304 251 L 305 245 L 307 242 L 309 239 L 309 237 L 310 235 L 311 233 L 311 232 L 311 233 L 311 235 L 311 236 L 311 237 L 311 239 L 311 243 L 311 247 L 311 251 L 311 258 L 311 263 L 310 270 L 310 274 L 310 280 L 310 286 L 310 291 L 310 295 L 310 300 L 310 304 L 310 310 L 309 317 L 308 322 L 308 325 L 308 328 L 307 332 L 307 336 L 307 341 L 306 345 L 305 348 L 304 351 L 304 355 L 303 358 L 303 364 L 303 366 L 302 368 L 301 370 L 301 372 L 301 373 L 301 374 L 301 375 L 300 376 L 300 377 L 300 378 L 299 378 L 299 379 L 298 380 L 298 381 L 298 382 L 298 383 L 297 383 L 297 384 L 297 383 L 297 379 L 297 371 L 297 364 L 297 359 L 297 353 L 297 348 L 297 343 L 297 338 L 297 335 L 297 331 L 297 327 L 297 325 L 297 323 L 297 321 L 297 319 L 297 317 L 297 314 L 297 311 L 297 309 L 298 307 L 298 306 L 298 304 L 299 303 L 299 301 L 300 299 L 300 297 L 302 292 L 305 284 L 308 278 L 309 275 L 311 270 L 311 268 L 313 266 L 314 265 L 315 263 L 316 261 L 316 260 L 316 259 L 317 258 L 317 257 L 318 257 L 319 256 L 319 255 L 320 255 L 320 254 L 320 253 L 321 253 L 322 251 L 322 249 L 322 246 L 323 244 L 324 242 L 324 240 L 324 238 L 325 236 L 326 235 L 326 234 L 326 235 L 326 239 L 326 242 L 326 246 L 326 249 L 326 252 L 326 255 L 326 259 L 326 264 L 325 272 L 324 283 L 324 294 L 323 304 L 323 311 L 322 319 L 321 325 L 320 329 L 320 333 L 320 336 L 320 337 L 320 338 L 320 339 L 320 340 L 320 341 L 319 343 L 319 345 L 319 347 L 318 349 L 318 351 L 318 353 L 318 354 L 317 356 L 317 358 L 316 360 L 316 361 L 316 362 L 316 363 L 317 363 L 318 363 L 318 362 L 319 362 L 320 362 L 320 361 L 320 360 L 322 356 L 324 346 L 326 338 L 328 327 L 330 320 L 336 308 L 338 298 L 340 285 L 343 274 L 345 268 L 345 263 L 348 256 L 348 251 L 349 249 L 350 249 L 350 247 L 350 246 L 350 245 L 350 244 "/><path stroke="#000000ff" fill="none" stroke-width="25" stroke-linecap="round" stroke-linejoin="round" d="M 315 431 L 315 431 "/><circle cx="346" cy="305" r="12.5" fill="#000000ff"/><circle cx="331" cy="274" r="12.5" fill="#000000ff"/><circle cx="446" cy="238" r="12.5" fill="#000000ff"/><path stroke="#000000ff" fill="none" stroke-width="25" stroke-linecap="round" stroke-linejoin="round" d="M 266 435 L 266 435 "/><circle cx="282" cy="393" r="12.5" fill="#000000ff"/><path stroke="#000000ff" fill="none" stroke-width="25" stroke-linecap="round" stroke-linejoin="round" d="M 133 300 L 134 300 L 143 300 L 154 300 L 163 300 L 177 298 L 188 294 L 192 293 L 199 289 L 201 288 L 205 284 L 206 283 "/><path stroke="#000000ff" fill="none" stroke-width="25" stroke-linecap="round" stroke-linejoin="round" d="M 179 463 L 179 463 L 179 463 "/></svg>