<svg xmlns="http://www.w3.org/2000/svg" _ngcontent-hxi-c1="" class="draw ng-star-inserted" draw="" filter="url(#filter)" ng-reflect-klass="draw" ng-reflect-ng-class="[object Object]" width="1088" height="689"><rect _ngcontent-hxi-c1="" height="100%" width="100%" fill="#ffffffff"/><defs _ngcontent-hxi-c1=""><pattern _ngcontent-hxi-c1="" height="25" id="line" patternUnits="userSpaceOnUse" width="25"><image _ngcontent-hxi-c1="" xmlns:xlink="http://www.w3.org/1999/xlink" xlink:href="data:image/svg+xml,%3Csvg xmlns='http://www.w3.org/2000/svg' width='100' height='100' viewBox='0 0 100 100'%3E%3Cg stroke='%23000000' stroke-width='0' %3E%3Crect fill='%23000000' x='-60' y='-60' width='110' height='240'/%3E%3C/g%3E%3C/svg%3E" height="25" width="25" x="0" y="0"/></pattern><pattern _ngcontent-hxi-c1="" height="25" id="zigzag-v" patternUnits="userSpaceOnUse" width="25"><image _ngcontent-hxi-c1="" xmlns:xlink="http://www.w3.org/1999/xlink" xlink:href="data:image/svg+xml,%3Csvg xmlns='http://www.w3.org/2000/svg' width='120' height='120' viewBox='0 0 120&#10;                120'%3E%3Cpolygon fill='%23000000' points='120 120 60 120 90 90 120 60 120 0 120 0 60 60 0 0 0 60 30 90 60 120 120 120 '/%3E%3C/svg%3E" height="25" width="25" x="0" y="0"/></pattern><pattern _ngcontent-hxi-c1="" height="25" id="zigzag-h" patternUnits="userSpaceOnUse" width="25"><image _ngcontent-hxi-c1="" xmlns:xlink="http://www.w3.org/1999/xlink" xlink:href="data:image/svg+xml,%3Csvg xmlns='http://www.w3.org/2000/svg' width='120' height='120' viewBox='0 0 120 120'%3E%3Cpolygon fill='%23000000' points='120 0 120 60 90 30 60 0 0 0 0 0 60 60 0 120 60 120 90 90 120 60 120 0'/%3E%3C/svg%3E" height="25" width="25" x="0" y="0"/></pattern><pattern _ngcontent-hxi-c1="" height="25" id="square" patternUnits="userSpaceOnUse" width="25"><image _ngcontent-hxi-c1="" xmlns:xlink="http://www.w3.org/1999/xlink" xlink:href="data:image/svg+xml,%3Csvg xmlns='http://www.w3.org/2000/svg' width='44' height='44' viewBox='0 0 100 100'%3E%3Crect x='0' y='0' width='76' height='76' fill='%23000000'/%3E%3C/svg%3E" height="25" width="25" x="0" y="0"/></pattern><pattern _ngcontent-hxi-c1="" height="25" id="circle" patternUnits="userSpaceOnUse" width="25"><image _ngcontent-hxi-c1="" xmlns:xlink="http://www.w3.org/1999/xlink" xlink:href="data:image/svg+xml,%3Csvg xmlns='http://www.w3.org/2000/svg' width='100%25' height='100%25' %3E%3Cdefs%3E%3ClinearGradient id='a' x1='0' x2='0' y1='0' y2='1'%3E%3Cstop offset='0' stop-color='%23ffffff'/%3E%3Cstop offset='1' stop-color='%23ffffff'/%3E%3C/linearGradient%3E%3C/defs%3E%3Cpattern id='b' width='12' height='12' patternUnits='userSpaceOnUse'%3E%3Ccircle fill='%23000000' cx='6' cy='6' r='6'/%3E%3C/pattern%3E%3Crect width='100%25' height='100%25' fill='url(%23a)'/%3E%3Crect width='100%25' height='100%25' fill='url(%23b)' /%3E%3C/svg%3E" height="25" width="25" x="0" y="0"/></pattern></defs><!--bindings={
  "ng-reflect-ng-for-of": "[object SVGPathElement],[objec"
}--><!----><!--bindings={
  "ng-reflect-svg": "[object SVGPathElement]",
  "ng-reflect-draw-svg": "[object SVGSVGElement]"
}--><!----><!--bindings={
  "ng-reflect-svg": "[object SVGPathElement]",
  "ng-reflect-draw-svg": "[object SVGSVGElement]"
}--><!----><!--bindings={
  "ng-reflect-svg": "[object SVGPathElement]",
  "ng-reflect-draw-svg": "[object SVGSVGElement]"
}--><!----><!--bindings={
  "ng-reflect-svg": "[object SVGPathElement]",
  "ng-reflect-draw-svg": "[object SVGSVGElement]"
}--><!----><!--bindings={
  "ng-reflect-svg": "[object SVGPathElement]",
  "ng-reflect-draw-svg": "[object SVGSVGElement]"
}--><path stroke="#ffffffff" fill="none" stroke-width="25" stroke-linecap="round" stroke-linejoin="round" d="M 140 84 L 144 88 L 151 94 L 183 121 L 221 149 L 272 179 L 316 213 L 375 260 L 413 286 L 441 305 L 474 326 L 491 336 L 567 389 L 589 406 L 597 414 L 617 429 L 621 431 L 622 432 " class="ng-star-inserted"/><path stroke="#ffffffff" fill="none" stroke-width="25" stroke-linecap="round" stroke-linejoin="round" d="M 376 177 L 385 174 L 401 170 L 406 170 L 409 171 L 410 171 L 411 172 L 411 173 L 411 173 " class="ng-star-inserted"/><path stroke="#ffffffff" fill="none" stroke-width="25" stroke-linecap="round" stroke-linejoin="round" d="M 411 173 L 413 173 L 434 177 L 451 182 L 465 188 L 486 199 L 503 213 L 529 235 L 537 243 L 544 251 L 552 261 L 560 269 L 561 271 L 561 273 L 561 273 L 561 275 L 561 276 L 561 278 L 560 280 L 558 283 L 557 284 L 557 284 L 556 284 L 556 284 " class="ng-star-inserted"/><path stroke="#ffffffff" fill="none" stroke-width="25" stroke-linecap="round" stroke-linejoin="round" d="M 372 204 L 373 206 L 373 206 " class="ng-star-inserted"/><path stroke="#00ffc3ff" fill="none" stroke-width="25" stroke-linecap="round" stroke-linejoin="round" d="M 282 147 L 294 147 L 326 147 L 374 150 L 414 155 L 456 164 L 507 176 L 571 200 L 596 219 L 613 233 L 629 260 L 637 279 L 645 316 L 644 338 L 640 355 L 630 369 L 612 381 L 594 389 L 566 398 L 531 407 L 461 420 L 425 428 L 414 430 L 412 431 L 411 431 " class="ng-star-inserted"/><filter _ngcontent-hxi-c1="" id="filter" ng-reflect-ng-switch="3"><!--bindings={
  "ng-reflect-ng-switch-case": "1"
}--><!--bindings={
  "ng-reflect-ng-switch-case": "2"
}--><!--bindings={
  "ng-reflect-ng-switch-case": "3"
}--><feColorMatrix _ngcontent-hxi-c1="" in="SourceGraphic" type="matrix" values="-1 0 0 0 1 &#10;            0 -1 0 0 1 &#10;            0 0 -1 0 1&#10;            0 0 0 1 0" class="ng-star-inserted"/><!--bindings={
  "ng-reflect-ng-switch-case": "4"
}--><!--bindings={
  "ng-reflect-ng-switch-case": "5"
}--></filter><!--bindings={
  "ng-reflect-ng-if": "false"
}--><!--bindings={
  "ng-reflect-ng-if": "false"
}--></svg>